<?xml version="1.0" standalone="no"?><!DOCTYPE svg PUBLIC "-//W3C//DTD SVG 1.1//EN" "http://www.w3.org/Graphics/SVG/1.1/DTD/svg11.dtd"><svg t="1700980304462" class="icon" viewBox="0 0 1280 1024" version="1.1" xmlns="http://www.w3.org/2000/svg" p-id="15473" xmlns:xlink="http://www.w3.org/1999/xlink" width="250" height="200"><path d="M301.88 384h67.46c22.02 0 37.22-21.66 29.72-42.36-9.86-27.16-15.1-55.96-15.1-85.64s5.24-58.48 15.1-85.64C406.58 149.66 391.36 128 369.34 128h-67.46c-14.02 0-26.92 8.98-30.82 22.46C261.28 184.42 256 219.76 256 256c0 36.24 5.28 71.58 15.08 105.52 3.88 13.48 16.78 22.48 30.8 22.48zM179.84 46.68C191.12 25.44 175.94 0 151.92 0H81.26c-12.54 0-24.28 7.18-29.48 18.62C18.8 91.08 0 171.3 0 256c0 49.5 6.24 136.66 53.38 237.72 5.24 11.26 16.84 18.28 29.22 18.28h69.68c24.04 0 39.22-25.48 27.9-46.74-99.56-186.64-33.42-356.3-0.34-418.58zM1228.12 18.58C1222.92 7.16 1211.2 0 1198.66 0h-70.84c-23.96 0-39.32 25.32-28.04 46.5 36.54 68.58 96.84 238.84 0.56 418.46-11.44 21.36 3.6 47.04 27.82 47.04h70.46c12.54 0 24.26-7.16 29.46-18.58C1261.14 420.96 1280 340.72 1280 256s-18.84-164.96-51.88-237.42zM978.12 128h-67.46c-22.02 0-37.22 21.66-29.72 42.36 9.86 27.16 15.1 55.96 15.1 85.64s-5.24 58.48-15.1 85.64c-7.52 20.7 7.7 42.36 29.72 42.36h67.46c14.04 0 26.92-8.98 30.82-22.48 9.8-33.94 15.06-69.28 15.06-105.52 0-36.24-5.28-71.58-15.08-105.52-3.88-13.5-16.78-22.48-30.8-22.48z m-232.6 200.24c14.1-20.58 22.4-45.42 22.4-72.24 0-70.7-57.26-128-127.92-128-70.64 0-127.92 57.3-127.92 128 0 26.82 8.3 51.66 22.4 72.24l-261 626.82c-6.8 16.3 0.92 35.04 17.22 41.84l59.02 24.62c16.3 6.8 35.04-0.92 41.82-17.22L489.92 768h300.14l98.4 236.3c6.8 16.32 25.52 24.02 41.82 17.22l59.02-24.62c16.3-6.8 24-25.54 17.22-41.84l-261-626.82zM543.24 640L640 407.62 736.76 640h-193.52z" fill="" p-id="15474"></path></svg>